
<svg width="26" height="32" viewBox="0 0 26 32" fill="none" xmlns="http://www.w3.org/2000/svg">
<path d="M0 3.04098C0 1.63764 1.13764 0.5 2.54098 0.5H22.8689C24.2722 0.5 25.4098 1.63764 25.4098 3.04098V3.54918C25.4098 4.95253 24.2722 6.09016 22.8689 6.09016H2.54098C1.13764 6.09016 0 4.95253 0 3.54918V3.04098Z" fill="#0C403D"/>
<path fill-rule="evenodd" clip-rule="evenodd" d="M12.7049 31.4999C19.7216 31.4999 25.4098 25.8117 25.4098 18.795C25.4098 11.7783 19.7216 6.09009 12.7049 6.09009C5.68819 6.09009 0 11.7783 0 18.795C0 25.8117 5.68819 31.4999 12.7049 31.4999ZM12.7049 31.4999C9.33689 31.4999 6.60656 28.7696 6.60656 25.4016C6.60656 22.0335 9.33689 19.3032 12.7049 19.3032C16.0729 19.3032 18.8033 22.0335 18.8033 25.4016C18.8033 28.7696 16.0729 31.4999 12.7049 31.4999Z" fill="#0C403D"/>
</svg>
