<!-- https://www.wordize.com/merge/svg/ -->
<svg xmlns="http://www.w3.org/2000/svg">
    <svg id="whatsapp" fill="none" xmlns="http://www.w3.org/2000/svg" viewBox="0 0 40 40">
        <circle cx="20" cy="20" r="20" fill="var(--fill)" />
        <path
            fill-rule="evenodd"
            clip-rule="evenodd"
            d="m8.55 26.486-1.883 6.847 7.039-1.837a13.313 13.313 0 0 0 6.344 1.609h.006c7.317 0 13.274-5.929 13.277-13.214a13.189 13.189 0 0 0-3.887-9.35 13.308 13.308 0 0 0-9.39-3.874c-7.32 0-13.275 5.927-13.278 13.213a13.144 13.144 0 0 0 1.772 6.606Zm5.885 2.856-.403-.238-4.177 1.09 1.115-4.053-.263-.415A10.918 10.918 0 0 1 9.02 19.88c.003-6.056 4.953-10.982 11.04-10.982 6.095.002 11.034 4.923 11.032 10.99-.003 6.057-4.953 10.984-11.036 10.984h-.004a11.06 11.06 0 0 1-5.617-1.531Z"
            fill="var(--stroke)" />
        <path fill="var(--stroke)" d="M16.738 14.356c-.249-.55-.51-.56-.747-.57-.193-.008-.415-.008-.636-.008a1.22 1.22 0 0 0-.885.413c-.304.33-1.16 1.13-1.16 2.755s1.188 3.195 1.354 3.416c.166.22 2.295 3.661 5.667 4.985 2.802 1.1 3.373.881 3.981.826.608-.055 1.963-.798 2.24-1.57.276-.771.276-1.432.193-1.57-.083-.138-.304-.22-.636-.385s-1.963-.965-2.267-1.075c-.304-.11-.525-.165-.747.166-.22.33-.856 1.074-1.05 1.294-.194.22-.387.248-.719.083-.332-.165-1.4-.514-2.668-1.64-.986-.874-1.652-1.956-1.845-2.286-.194-.33-.021-.51.145-.674.15-.148.332-.386.498-.578.166-.193.22-.331.331-.551.111-.22.056-.414-.027-.579-.083-.165-.728-1.799-1.022-2.452Z" />
    </svg>
    <svg id="instagram" fill="none" xmlns="http://www.w3.org/2000/svg" viewBox="0 0 40 40" >
        <circle cx="20" cy="20" r="20" fill="var(--fill)" />
        <path fill="var(--stroke)" fill-rule="evenodd" clip-rule="evenodd" d="M20 6.667c-3.621 0-4.075.015-5.497.08-1.42.065-2.389.29-3.237.62-.877.34-1.62.796-2.361 1.538a6.536 6.536 0 0 0-1.538 2.361c-.33.848-.555 1.818-.62 3.237-.065 1.422-.08 1.876-.08 5.497s.015 4.075.08 5.497c.065 1.42.29 2.389.62 3.237.34.877.796 1.62 1.538 2.362a6.538 6.538 0 0 0 2.361 1.537c.848.33 1.818.555 3.237.62 1.422.065 1.876.08 5.497.08s4.075-.015 5.497-.08c1.42-.065 2.389-.29 3.237-.62a6.538 6.538 0 0 0 2.362-1.537 6.538 6.538 0 0 0 1.537-2.362c.33-.848.555-1.817.62-3.237.065-1.422.08-1.876.08-5.497s-.015-4.075-.08-5.497c-.065-1.42-.29-2.389-.62-3.237a6.538 6.538 0 0 0-1.537-2.361 6.536 6.536 0 0 0-2.362-1.538c-.848-.33-1.817-.555-3.237-.62-1.422-.065-1.876-.08-5.497-.08Zm0 2.402c3.56 0 3.982.014 5.388.078 1.3.06 2.006.276 2.476.459a4.13 4.13 0 0 1 1.533.997c.466.467.755.911.997 1.534.183.47.4 1.175.46 2.475.063 1.406.077 1.828.077 5.388 0 3.56-.014 3.982-.078 5.388-.059 1.3-.276 2.006-.459 2.476a4.131 4.131 0 0 1-.997 1.533c-.467.466-.91.755-1.533.997-.47.183-1.176.4-2.476.46-1.406.063-1.828.077-5.388.077-3.56 0-3.982-.014-5.388-.078-1.3-.059-2.006-.276-2.476-.459a4.13 4.13 0 0 1-1.533-.997 4.13 4.13 0 0 1-.997-1.533c-.183-.47-.4-1.176-.46-2.476C9.084 23.982 9.07 23.56 9.07 20c0-3.56.014-3.982.078-5.388.06-1.3.276-2.006.459-2.476a4.13 4.13 0 0 1 .997-1.533 4.13 4.13 0 0 1 1.534-.997c.47-.183 1.175-.4 2.475-.46C16.018 9.084 16.44 9.07 20 9.07Z" />
        <path fill="var(--stroke)" fill-rule="evenodd" clip-rule="evenodd" d="M20 24.445a4.444 4.444 0 1 1 0-8.89 4.444 4.444 0 0 1 0 8.89Zm0-11.292a6.847 6.847 0 1 0 0 13.694 6.847 6.847 0 0 0 0-13.694ZM28.718 12.883a1.6 1.6 0 1 1-3.2 0 1.6 1.6 0 0 1 3.2 0Z" />
    </svg>
    <svg id="messenger" fill="none" xmlns="http://www.w3.org/2000/svg" viewBox="0 0 40 40">
        <circle cx="20" cy="20" r="20" fill="var(--fill)" />
        <path fill="var(--stroke)"  fill-rule="evenodd" clip-rule="evenodd" d="M6.667 19.6C6.667 12.17 12.489 6.667 20 6.667S33.333 12.169 33.333 19.6c0 7.432-5.822 12.933-13.333 12.933a14.54 14.54 0 0 1-3.86-.512 1.065 1.065 0 0 0-.712.052l-2.646 1.169a1.067 1.067 0 0 1-1.497-.944l-.073-2.372a1.065 1.065 0 0 0-.358-.76c-2.594-2.32-4.187-5.679-4.187-9.566Zm9.243-2.431-3.917 6.213c-.375.597.358 1.269.92.843l4.206-3.193a.8.8 0 0 1 .964-.003l3.115 2.336a2 2 0 0 0 2.892-.533l3.917-6.214c.375-.596-.358-1.268-.919-.842l-4.207 3.192a.8.8 0 0 1-.964.003l-3.115-2.336a2 2 0 0 0-2.892.534Z" />
    </svg>
    <svg id="facebook" fill="none" xmlns="http://www.w3.org/2000/svg" viewBox="0 0 40 40">
        <circle cx="20" cy="20" r="20" fill="var(--fill)" />
        <path fill="var(--stroke)" d="m27.784 25.78.887-5.78h-5.547v-3.753c0-1.581.775-3.123 3.26-3.123h2.521V8.202s-2.288-.39-4.477-.39c-4.568 0-7.554 2.768-7.554 7.78V20h-5.079v5.782h5.079v13.976a20.16 20.16 0 0 0 6.25 0V25.781h4.66Z" />
    </svg>
    <svg id="linkedin" fill="none" xmlns="http://www.w3.org/2000/svg" viewBox="0 0 40 40">
        <circle cx="20" cy="20" r="20" fill="var(--fill)" />
        <path fill="var(--stroke)" d="M30.831 29.167h-4.14V22.67c0-1.55-.028-3.544-2.154-3.544-2.157 0-2.487 1.688-2.487 3.43v6.61h-4.14v-13.36h3.974v1.826h.056a4.36 4.36 0 0 1 3.922-2.158c4.197 0 4.971 2.766 4.971 6.363l-.002 7.329ZM13.237 13.981a2.417 2.417 0 0 1-2.404-2.407 2.417 2.417 0 0 1 2.403-2.407 2.417 2.417 0 0 1 2.403 2.406v.001a2.417 2.417 0 0 1-2.402 2.407Zm2.07 15.186h-4.145v-13.36h4.145v13.36Z" />
    </svg>
    <svg id="brand" viewBox="0 0 26 31" fill="none" xmlns="http://www.w3.org/2000/svg">
        <path fill="var(--stroke)" d="M0 2.541A2.541 2.541 0 0 1 2.541 0h20.328a2.54 2.54 0 0 1 2.54 2.541v.508a2.54 2.54 0 0 1-2.54 2.541H2.54A2.541 2.541 0 0 1 0 3.05V2.54Z"  />
        <path fill="var(--stroke)" fill-rule="evenodd" clip-rule="evenodd" d="M12.705 31c7.017 0 12.705-5.688 12.705-12.705S19.722 5.59 12.705 5.59 0 11.278 0 18.295 5.688 31 12.705 31Zm0 0a6.098 6.098 0 1 1 0-12.197 6.098 6.098 0 0 1 0 12.197Z"  />
    </svg>
    <svg id="check" viewBox="0 0 18 18" fill="none" xmlns="http://www.w3.org/2000/svg">
        <path d="M17 9a8 8 0 1 1-4.5-7.196M15.5 4l-7 7-2-2" stroke="var(--stroke)" stroke-width="1.5" stroke-linecap="round" stroke-linejoin="round" />
    </svg>
    <svg id="form-error" viewBox="0 0 16 16" fill="none" xmlns="http://www.w3.org/2000/svg">
        <path stroke="var(--stroke)" d="M8.00001 8.00001V4.80001M8.00001 10.3719V10.4M14.4 8.00001C14.4 11.5346 11.5346 14.4 8.00001 14.4C4.46538 14.4 1.60001 11.5346 1.60001 8.00001C1.60001 4.46538 4.46538 1.60001 8.00001 1.60001C11.5346 1.60001 14.4 4.46538 14.4 8.00001Z" stroke-width="1.5" stroke-linecap="round" stroke-linejoin="round"/>
    </svg>
    <svg id="form-success" viewBox="0 0 16 16" fill="none" xmlns="http://www.w3.org/2000/svg">
        <path stroke="var(--stroke)" d="M10.2343 6.56569L7.20001 9.60001L6.16569 8.56569M8.00001 1.60001C4.46538 1.60001 1.60001 4.46538 1.60001 8.00001C1.60001 11.5346 4.46538 14.4 8.00001 14.4C11.5346 14.4 14.4 11.5346 14.4 8.00001C14.4 4.46538 11.5346 1.60001 8.00001 1.60001Z" stroke-width="1.5" stroke-linecap="round" stroke-linejoin="round"/>
    </svg>
</svg>
